<svg width="2255" height="3796" viewBox="0 0 2255 3796" fill="none" xmlns="http://www.w3.org/2000/svg">
<path d="M2253.71 2719.33H1137.39V1154.01H1918.37C2103.57 1154.01 2253.71 1304.16 2253.71 1489.36V2719.33Z" fill="#EDEDED"/>
<path d="M729.429 2719.34H0V0H2253.72V729.446H729.429V2719.34Z" fill="#FFA92C"/>
<path d="M211.002 2850.75V2916.73H93.7269V2969.19H180.225V3032.21H93.7269V3148.96H12.1973V2850.75H211.002Z" fill="#EDEDED"/>
<path d="M329.05 3148.96H248.285V2850.75H329.05V3148.96Z" fill="#EDEDED"/>
<path d="M645.888 3148.96H563.846L454.574 2982.3V3148.96H372.531V2850.75H454.574L563.846 3019.52V2850.75H645.888V3148.96Z" fill="#EDEDED"/>
<path d="M857.802 3036.86L825.852 2940.43L794.336 3036.86H857.802ZM878.401 3100.31H773.301L757.34 3148.96H670.74L778.784 2850.75H873.764L981.373 3148.96H894.363L878.401 3100.31Z" fill="#EDEDED"/>
<path d="M1279.58 3148.96H1197.52L1088.28 2982.3V3148.96H1006.22V2850.75H1088.28L1197.52 3019.52V2850.75H1279.58V3148.96Z" fill="#EDEDED"/>
<path d="M1329.08 2922.5C1341.38 2899.91 1358.82 2882.3 1381.42 2869.67C1404.03 2857.06 1430.02 2850.75 1459.39 2850.75C1496.69 2850.75 1528.05 2860.52 1553.47 2880.08C1578.92 2899.63 1595.3 2926.17 1602.63 2959.73H1513.22C1507.85 2948.63 1500.44 2940.18 1490.96 2934.35C1481.5 2928.53 1470.55 2925.61 1458.12 2925.61C1438.9 2925.61 1423.58 2932.34 1412.14 2945.78C1400.7 2959.24 1394.99 2977.19 1394.99 2999.64C1394.99 3022.38 1400.7 3040.47 1412.14 3053.92C1423.58 3067.37 1438.9 3074.09 1458.12 3074.09C1470.55 3074.09 1481.5 3071.19 1490.96 3065.36C1500.44 3059.54 1507.85 3051.08 1513.22 3039.99H1602.63C1595.3 3073.55 1578.92 3100.09 1553.47 3119.64C1528.05 3139.18 1496.69 3148.96 1459.39 3148.96C1430.02 3148.96 1404.03 3142.66 1381.42 3130.03C1358.82 3117.42 1341.38 3099.81 1329.08 3077.21C1316.79 3054.62 1310.64 3028.76 1310.64 2999.64C1310.64 2970.82 1316.79 2945.1 1329.08 2922.5Z" fill="#EDEDED"/>
<path d="M1720.68 3148.96H1639.91V2850.75H1720.68V3148.96Z" fill="#EDEDED"/>
<path d="M1932.58 3036.86L1900.62 2940.43L1869.11 3036.86H1932.58ZM1953.18 3100.31H1848.09L1832.11 3148.96H1745.53L1853.55 2850.75H1948.57L2056.16 3148.96H1969.14L1953.18 3100.31Z" fill="#EDEDED"/>
<path d="M2163.18 3085.51H2254.96V3148.96H2081.01V2850.75H2163.18V3085.51Z" fill="#EDEDED"/>
<path d="M180.284 3430.6C194.089 3417.62 200.99 3399.27 200.99 3375.51C200.99 3351.49 194.089 3332.92 180.284 3319.8C166.493 3306.7 147.474 3300.14 123.251 3300.14H94.5229V3450.06H123.251C147.474 3450.06 166.493 3443.58 180.284 3430.6ZM211.77 3248.15C235.283 3260.45 253.388 3277.63 266.059 3299.72C278.729 3321.81 285.065 3347.08 285.065 3375.51C285.065 3403.67 278.665 3428.81 265.84 3450.9C253.028 3472.99 234.858 3490.31 211.344 3502.87C187.817 3515.44 160.569 3521.71 129.587 3521.71H11.709V3229.72H129.587C160.853 3229.72 188.243 3235.87 211.77 3248.15Z" fill="#EDEDED"/>
<path d="M453.482 3411.95L421.531 3317.53L390.014 3411.95H453.482ZM474.082 3474.09H368.992L353.016 3521.71H266.426L374.463 3229.72H469.458L577.058 3521.71H490.044L474.082 3474.09Z" fill="#EDEDED"/>
<path d="M831.776 3229.72L731.738 3428.94V3521.71H652.258V3428.94L552.207 3229.72H642.581L692.6 3342.37L742.619 3229.72H831.776Z" fill="#EDEDED"/>
<path d="M949.819 3521.71H869.055V3440.95H949.819V3521.71Z" fill="#FFA92C"/>
<path d="M1492.02 3793.94H1437.53L1379.85 3706.56V3793.94H1325.37V3620.17H1379.85L1437.53 3709.02V3620.17H1492.02V3793.94Z" fill="#EDEDED"/>
<path d="M1216.63 3795.65C1200.27 3795.65 1185.21 3791.81 1171.47 3784.12C1157.89 3776.43 1147.09 3765.79 1139.07 3752.21C1131.05 3738.63 1127.04 3723.33 1127.04 3706.32C1127.04 3689.3 1131.05 3674 1139.07 3660.42C1147.09 3646.84 1157.89 3636.29 1171.47 3628.76C1185.21 3621.07 1200.27 3617.23 1216.63 3617.23C1232.99 3617.23 1247.96 3621.07 1261.54 3628.76C1275.12 3636.29 1285.84 3646.84 1293.69 3660.42C1301.71 3674 1305.72 3689.3 1305.72 3706.32C1305.72 3723.33 1301.71 3738.63 1293.69 3752.21C1285.84 3765.79 1275.04 3776.43 1261.3 3784.12C1247.72 3791.81 1232.83 3795.65 1216.63 3795.65ZM1216.63 3744.85C1227.43 3744.85 1235.77 3741.41 1241.66 3734.54C1247.55 3727.51 1250.5 3718.1 1250.5 3706.32C1250.5 3694.37 1247.55 3684.96 1241.66 3678.09C1235.77 3671.06 1227.43 3667.54 1216.63 3667.54C1205.66 3667.54 1197.24 3671.06 1191.35 3678.09C1185.46 3684.96 1182.51 3694.37 1182.51 3706.32C1182.51 3718.1 1185.46 3727.51 1191.35 3734.54C1197.24 3741.41 1205.66 3744.85 1216.63 3744.85Z" fill="#EDEDED"/>
<path d="M1107.35 3620.17V3793.94H1052.87V3620.17H1107.35Z" fill="#EDEDED"/>
<path d="M1038.09 3620.17V3663.37H991.946V3793.94H937.461V3663.37H891.811V3620.17H1038.09Z" fill="#EDEDED"/>
<path d="M877.013 3620.17V3793.94H822.527V3620.17H877.013Z" fill="#EDEDED"/>
<path d="M712.533 3620.17C730.695 3620.17 746.566 3623.85 760.146 3631.22C773.891 3638.58 784.444 3648.8 791.807 3661.89C799.17 3674.98 802.851 3689.87 802.851 3706.56C802.851 3723.09 799.17 3737.98 791.807 3751.23C784.444 3764.48 773.891 3774.96 760.146 3782.65C746.566 3790.17 730.695 3793.94 712.533 3793.94H640.131V3620.17H712.533ZM707.624 3745.34C719.896 3745.34 729.631 3741.99 736.831 3735.28C744.03 3728.57 747.63 3719 747.63 3706.56C747.63 3694.13 744.03 3684.56 736.831 3677.85C729.631 3671.14 719.896 3667.78 707.624 3667.78H694.616V3745.34H707.624Z" fill="#EDEDED"/>
<path d="M558.241 3663.61V3684.96H612.236V3725.95H558.241V3750.49H619.599V3793.94H503.756V3620.17H619.599V3663.61H558.241Z" fill="#EDEDED"/>
<path d="M387.867 3654.53C403.738 3654.53 416.092 3659.85 424.927 3670.48C433.926 3681.12 438.426 3695.52 438.426 3713.68V3793.94H384.186V3720.55C384.186 3714.01 382.386 3708.85 378.786 3705.09C375.35 3701.16 370.687 3699.2 364.797 3699.2C358.743 3699.2 353.998 3701.16 350.562 3705.09C347.126 3708.85 345.407 3714.01 345.407 3720.55V3793.94H290.922V3612.32H345.407V3676.62C349.662 3670.08 355.307 3664.76 362.342 3660.67C369.542 3656.58 378.05 3654.53 387.867 3654.53Z" fill="#EDEDED"/>
<path d="M270.176 3747.55V3793.94H249.56C211.6 3793.94 192.62 3775.04 192.62 3737.24V3700.92H175.439V3655.51H192.62V3622.14H247.105V3655.51H269.685V3700.92H247.105V3738.22C247.105 3741.5 247.842 3743.87 249.314 3745.34C250.95 3746.81 253.568 3747.55 257.168 3747.55H270.176Z" fill="#EDEDED"/>
<path d="M11.709 3766.94V3721.53L84.8473 3617.23H143.505V3719.82H161.176V3766.94H143.505V3793.94H88.5288V3766.94H11.709ZM92.9466 3679.32L66.44 3719.82H92.9466V3679.32Z" fill="#EDEDED"/>
</svg>
